<?xml version="1.0" encoding="utf-8" standalone="no"?>
<!DOCTYPE svg PUBLIC "-//W3C//DTD SVG 1.1//EN"
  "http://www.w3.org/Graphics/SVG/1.1/DTD/svg11.dtd">
<svg height="491.77125pt" version="1.1" viewBox="0 0 947.9575 491.77125" width="947.9575pt" xmlns="http://www.w3.org/2000/svg" xmlns:xlink="http://www.w3.org/1999/xlink">
 <metadata>
  <rdf:RDF xmlns:cc="http://creativecommons.org/ns#" xmlns:dc="http://purl.org/dc/elements/1.1/" xmlns:rdf="http://www.w3.org/1999/02/22-rdf-syntax-ns#">
   <cc:Work>
    <dc:type rdf:resource="http://purl.org/dc/dcmitype/StillImage"/>
    <dc:date>2021-05-27T22:12:43.520853</dc:date>
    <dc:format>image/svg+xml</dc:format>
    <dc:creator>
     <cc:Agent>
      <dc:title>Matplotlib v3.4.2, https://matplotlib.org/</dc:title>
     </cc:Agent>
    </dc:creator>
   </cc:Work>
  </rdf:RDF>
 </metadata>
 <defs>
  <style type="text/css">*{stroke-linecap:butt;stroke-linejoin:round;}</style>
 </defs>
 <g id="figure_1">
  <g id="patch_1">
   <path d="M 0 491.77125 
L 947.9575 491.77125 
L 947.9575 0 
L 0 0 
z
" style="fill:#ffffff;"/>
  </g>
  <g id="axes_1">
   <g id="patch_2">
    <path d="M 47.9575 447.80625 
L 940.7575 447.80625 
L 940.7575 12.92625 
L 47.9575 12.92625 
z
" style="fill:#ffffff;"/>
   </g>
   <g id="matplotlib.axis_1">
    <g id="xtick_1">
     <g id="line2d_1">
      <path clip-path="url(#p02a5277934)" d="M 47.9575 447.80625 
L 47.9575 12.92625 
" style="fill:none;stroke:#cccccc;stroke-linecap:round;stroke-width:0.8;"/>
     </g>
     <g id="line2d_2"/>
     <g id="text_1">
      <!-- 0 -->
      <g style="fill:#262626;" transform="translate(43.50875 462.75875)scale(0.16 -0.16)">
       <defs>
        <path d="M 266 2259 
Q 266 3072 433 3567 
Q 600 4063 929 4331 
Q 1259 4600 1759 4600 
Q 2128 4600 2406 4451 
Q 2684 4303 2865 4023 
Q 3047 3744 3150 3342 
Q 3253 2941 3253 2259 
Q 3253 1453 3087 958 
Q 2922 463 2592 192 
Q 2263 -78 1759 -78 
Q 1097 -78 719 397 
Q 266 969 266 2259 
z
M 844 2259 
Q 844 1131 1108 757 
Q 1372 384 1759 384 
Q 2147 384 2411 759 
Q 2675 1134 2675 2259 
Q 2675 3391 2411 3762 
Q 2147 4134 1753 4134 
Q 1366 4134 1134 3806 
Q 844 3388 844 2259 
z
" id="ArialMT-30" transform="scale(0.015625)"/>
       </defs>
       <use xlink:href="#ArialMT-30"/>
      </g>
     </g>
    </g>
    <g id="xtick_2">
     <g id="line2d_3">
      <path clip-path="url(#p02a5277934)" d="M 243.44688 447.80625 
L 243.44688 12.92625 
" style="fill:none;stroke:#cccccc;stroke-linecap:round;stroke-width:0.8;"/>
     </g>
     <g id="line2d_4"/>
     <g id="text_2">
      <!-- 1000 -->
      <g style="fill:#262626;" transform="translate(225.65188 462.75875)scale(0.16 -0.16)">
       <defs>
        <path d="M 2384 0 
L 1822 0 
L 1822 3584 
Q 1619 3391 1289 3197 
Q 959 3003 697 2906 
L 697 3450 
Q 1169 3672 1522 3987 
Q 1875 4303 2022 4600 
L 2384 4600 
L 2384 0 
z
" id="ArialMT-31" transform="scale(0.015625)"/>
       </defs>
       <use xlink:href="#ArialMT-31"/>
       <use x="55.615234" xlink:href="#ArialMT-30"/>
       <use x="111.230469" xlink:href="#ArialMT-30"/>
       <use x="166.845703" xlink:href="#ArialMT-30"/>
      </g>
     </g>
    </g>
    <g id="xtick_3">
     <g id="line2d_5">
      <path clip-path="url(#p02a5277934)" d="M 438.936261 447.80625 
L 438.936261 12.92625 
" style="fill:none;stroke:#cccccc;stroke-linecap:round;stroke-width:0.8;"/>
     </g>
     <g id="line2d_6"/>
     <g id="text_3">
      <!-- 2000 -->
      <g style="fill:#262626;" transform="translate(421.141261 462.75875)scale(0.16 -0.16)">
       <defs>
        <path d="M 3222 541 
L 3222 0 
L 194 0 
Q 188 203 259 391 
Q 375 700 629 1000 
Q 884 1300 1366 1694 
Q 2113 2306 2375 2664 
Q 2638 3022 2638 3341 
Q 2638 3675 2398 3904 
Q 2159 4134 1775 4134 
Q 1369 4134 1125 3890 
Q 881 3647 878 3216 
L 300 3275 
Q 359 3922 746 4261 
Q 1134 4600 1788 4600 
Q 2447 4600 2831 4234 
Q 3216 3869 3216 3328 
Q 3216 3053 3103 2787 
Q 2991 2522 2730 2228 
Q 2469 1934 1863 1422 
Q 1356 997 1212 845 
Q 1069 694 975 541 
L 3222 541 
z
" id="ArialMT-32" transform="scale(0.015625)"/>
       </defs>
       <use xlink:href="#ArialMT-32"/>
       <use x="55.615234" xlink:href="#ArialMT-30"/>
       <use x="111.230469" xlink:href="#ArialMT-30"/>
       <use x="166.845703" xlink:href="#ArialMT-30"/>
      </g>
     </g>
    </g>
    <g id="xtick_4">
     <g id="line2d_7">
      <path clip-path="url(#p02a5277934)" d="M 634.425641 447.80625 
L 634.425641 12.92625 
" style="fill:none;stroke:#cccccc;stroke-linecap:round;stroke-width:0.8;"/>
     </g>
     <g id="line2d_8"/>
     <g id="text_4">
      <!-- 3000 -->
      <g style="fill:#262626;" transform="translate(616.630641 462.75875)scale(0.16 -0.16)">
       <defs>
        <path d="M 269 1209 
L 831 1284 
Q 928 806 1161 595 
Q 1394 384 1728 384 
Q 2125 384 2398 659 
Q 2672 934 2672 1341 
Q 2672 1728 2419 1979 
Q 2166 2231 1775 2231 
Q 1616 2231 1378 2169 
L 1441 2663 
Q 1497 2656 1531 2656 
Q 1891 2656 2178 2843 
Q 2466 3031 2466 3422 
Q 2466 3731 2256 3934 
Q 2047 4138 1716 4138 
Q 1388 4138 1169 3931 
Q 950 3725 888 3313 
L 325 3413 
Q 428 3978 793 4289 
Q 1159 4600 1703 4600 
Q 2078 4600 2393 4439 
Q 2709 4278 2876 4000 
Q 3044 3722 3044 3409 
Q 3044 3113 2884 2869 
Q 2725 2625 2413 2481 
Q 2819 2388 3044 2092 
Q 3269 1797 3269 1353 
Q 3269 753 2831 336 
Q 2394 -81 1725 -81 
Q 1122 -81 723 278 
Q 325 638 269 1209 
z
" id="ArialMT-33" transform="scale(0.015625)"/>
       </defs>
       <use xlink:href="#ArialMT-33"/>
       <use x="55.615234" xlink:href="#ArialMT-30"/>
       <use x="111.230469" xlink:href="#ArialMT-30"/>
       <use x="166.845703" xlink:href="#ArialMT-30"/>
      </g>
     </g>
    </g>
    <g id="xtick_5">
     <g id="line2d_9">
      <path clip-path="url(#p02a5277934)" d="M 829.915021 447.80625 
L 829.915021 12.92625 
" style="fill:none;stroke:#cccccc;stroke-linecap:round;stroke-width:0.8;"/>
     </g>
     <g id="line2d_10"/>
     <g id="text_5">
      <!-- 4000 -->
      <g style="fill:#262626;" transform="translate(812.120021 462.75875)scale(0.16 -0.16)">
       <defs>
        <path d="M 2069 0 
L 2069 1097 
L 81 1097 
L 81 1613 
L 2172 4581 
L 2631 4581 
L 2631 1613 
L 3250 1613 
L 3250 1097 
L 2631 1097 
L 2631 0 
L 2069 0 
z
M 2069 1613 
L 2069 3678 
L 634 1613 
L 2069 1613 
z
" id="ArialMT-34" transform="scale(0.015625)"/>
       </defs>
       <use xlink:href="#ArialMT-34"/>
       <use x="55.615234" xlink:href="#ArialMT-30"/>
       <use x="111.230469" xlink:href="#ArialMT-30"/>
       <use x="166.845703" xlink:href="#ArialMT-30"/>
      </g>
     </g>
    </g>
    <g id="text_6">
     <!-- Matched products -->
     <g style="fill:#262626;" transform="translate(430.7725 481.39125)scale(0.16 -0.16)">
      <defs>
       <path d="M 475 0 
L 475 4581 
L 1388 4581 
L 2472 1338 
Q 2622 884 2691 659 
Q 2769 909 2934 1394 
L 4031 4581 
L 4847 4581 
L 4847 0 
L 4263 0 
L 4263 3834 
L 2931 0 
L 2384 0 
L 1059 3900 
L 1059 0 
L 475 0 
z
" id="ArialMT-4d" transform="scale(0.015625)"/>
       <path d="M 2588 409 
Q 2275 144 1986 34 
Q 1697 -75 1366 -75 
Q 819 -75 525 192 
Q 231 459 231 875 
Q 231 1119 342 1320 
Q 453 1522 633 1644 
Q 813 1766 1038 1828 
Q 1203 1872 1538 1913 
Q 2219 1994 2541 2106 
Q 2544 2222 2544 2253 
Q 2544 2597 2384 2738 
Q 2169 2928 1744 2928 
Q 1347 2928 1158 2789 
Q 969 2650 878 2297 
L 328 2372 
Q 403 2725 575 2942 
Q 747 3159 1072 3276 
Q 1397 3394 1825 3394 
Q 2250 3394 2515 3294 
Q 2781 3194 2906 3042 
Q 3031 2891 3081 2659 
Q 3109 2516 3109 2141 
L 3109 1391 
Q 3109 606 3145 398 
Q 3181 191 3288 0 
L 2700 0 
Q 2613 175 2588 409 
z
M 2541 1666 
Q 2234 1541 1622 1453 
Q 1275 1403 1131 1340 
Q 988 1278 909 1158 
Q 831 1038 831 891 
Q 831 666 1001 516 
Q 1172 366 1500 366 
Q 1825 366 2078 508 
Q 2331 650 2450 897 
Q 2541 1088 2541 1459 
L 2541 1666 
z
" id="ArialMT-61" transform="scale(0.015625)"/>
       <path d="M 1650 503 
L 1731 6 
Q 1494 -44 1306 -44 
Q 1000 -44 831 53 
Q 663 150 594 308 
Q 525 466 525 972 
L 525 2881 
L 113 2881 
L 113 3319 
L 525 3319 
L 525 4141 
L 1084 4478 
L 1084 3319 
L 1650 3319 
L 1650 2881 
L 1084 2881 
L 1084 941 
Q 1084 700 1114 631 
Q 1144 563 1211 522 
Q 1278 481 1403 481 
Q 1497 481 1650 503 
z
" id="ArialMT-74" transform="scale(0.015625)"/>
       <path d="M 2588 1216 
L 3141 1144 
Q 3050 572 2676 248 
Q 2303 -75 1759 -75 
Q 1078 -75 664 370 
Q 250 816 250 1647 
Q 250 2184 428 2587 
Q 606 2991 970 3192 
Q 1334 3394 1763 3394 
Q 2303 3394 2647 3120 
Q 2991 2847 3088 2344 
L 2541 2259 
Q 2463 2594 2264 2762 
Q 2066 2931 1784 2931 
Q 1359 2931 1093 2626 
Q 828 2322 828 1663 
Q 828 994 1084 691 
Q 1341 388 1753 388 
Q 2084 388 2306 591 
Q 2528 794 2588 1216 
z
" id="ArialMT-63" transform="scale(0.015625)"/>
       <path d="M 422 0 
L 422 4581 
L 984 4581 
L 984 2938 
Q 1378 3394 1978 3394 
Q 2347 3394 2619 3248 
Q 2891 3103 3008 2847 
Q 3125 2591 3125 2103 
L 3125 0 
L 2563 0 
L 2563 2103 
Q 2563 2525 2380 2717 
Q 2197 2909 1863 2909 
Q 1613 2909 1392 2779 
Q 1172 2650 1078 2428 
Q 984 2206 984 1816 
L 984 0 
L 422 0 
z
" id="ArialMT-68" transform="scale(0.015625)"/>
       <path d="M 2694 1069 
L 3275 997 
Q 3138 488 2766 206 
Q 2394 -75 1816 -75 
Q 1088 -75 661 373 
Q 234 822 234 1631 
Q 234 2469 665 2931 
Q 1097 3394 1784 3394 
Q 2450 3394 2872 2941 
Q 3294 2488 3294 1666 
Q 3294 1616 3291 1516 
L 816 1516 
Q 847 969 1125 678 
Q 1403 388 1819 388 
Q 2128 388 2347 550 
Q 2566 713 2694 1069 
z
M 847 1978 
L 2700 1978 
Q 2663 2397 2488 2606 
Q 2219 2931 1791 2931 
Q 1403 2931 1139 2672 
Q 875 2413 847 1978 
z
" id="ArialMT-65" transform="scale(0.015625)"/>
       <path d="M 2575 0 
L 2575 419 
Q 2259 -75 1647 -75 
Q 1250 -75 917 144 
Q 584 363 401 755 
Q 219 1147 219 1656 
Q 219 2153 384 2558 
Q 550 2963 881 3178 
Q 1213 3394 1622 3394 
Q 1922 3394 2156 3267 
Q 2391 3141 2538 2938 
L 2538 4581 
L 3097 4581 
L 3097 0 
L 2575 0 
z
M 797 1656 
Q 797 1019 1065 703 
Q 1334 388 1700 388 
Q 2069 388 2326 689 
Q 2584 991 2584 1609 
Q 2584 2291 2321 2609 
Q 2059 2928 1675 2928 
Q 1300 2928 1048 2622 
Q 797 2316 797 1656 
z
" id="ArialMT-64" transform="scale(0.015625)"/>
       <path id="ArialMT-20" transform="scale(0.015625)"/>
       <path d="M 422 -1272 
L 422 3319 
L 934 3319 
L 934 2888 
Q 1116 3141 1344 3267 
Q 1572 3394 1897 3394 
Q 2322 3394 2647 3175 
Q 2972 2956 3137 2557 
Q 3303 2159 3303 1684 
Q 3303 1175 3120 767 
Q 2938 359 2589 142 
Q 2241 -75 1856 -75 
Q 1575 -75 1351 44 
Q 1128 163 984 344 
L 984 -1272 
L 422 -1272 
z
M 931 1641 
Q 931 1000 1190 694 
Q 1450 388 1819 388 
Q 2194 388 2461 705 
Q 2728 1022 2728 1688 
Q 2728 2322 2467 2637 
Q 2206 2953 1844 2953 
Q 1484 2953 1207 2617 
Q 931 2281 931 1641 
z
" id="ArialMT-70" transform="scale(0.015625)"/>
       <path d="M 416 0 
L 416 3319 
L 922 3319 
L 922 2816 
Q 1116 3169 1280 3281 
Q 1444 3394 1641 3394 
Q 1925 3394 2219 3213 
L 2025 2691 
Q 1819 2813 1613 2813 
Q 1428 2813 1281 2702 
Q 1134 2591 1072 2394 
Q 978 2094 978 1738 
L 978 0 
L 416 0 
z
" id="ArialMT-72" transform="scale(0.015625)"/>
       <path d="M 213 1659 
Q 213 2581 725 3025 
Q 1153 3394 1769 3394 
Q 2453 3394 2887 2945 
Q 3322 2497 3322 1706 
Q 3322 1066 3130 698 
Q 2938 331 2570 128 
Q 2203 -75 1769 -75 
Q 1072 -75 642 372 
Q 213 819 213 1659 
z
M 791 1659 
Q 791 1022 1069 705 
Q 1347 388 1769 388 
Q 2188 388 2466 706 
Q 2744 1025 2744 1678 
Q 2744 2294 2464 2611 
Q 2184 2928 1769 2928 
Q 1347 2928 1069 2612 
Q 791 2297 791 1659 
z
" id="ArialMT-6f" transform="scale(0.015625)"/>
       <path d="M 2597 0 
L 2597 488 
Q 2209 -75 1544 -75 
Q 1250 -75 995 37 
Q 741 150 617 320 
Q 494 491 444 738 
Q 409 903 409 1263 
L 409 3319 
L 972 3319 
L 972 1478 
Q 972 1038 1006 884 
Q 1059 663 1231 536 
Q 1403 409 1656 409 
Q 1909 409 2131 539 
Q 2353 669 2445 892 
Q 2538 1116 2538 1541 
L 2538 3319 
L 3100 3319 
L 3100 0 
L 2597 0 
z
" id="ArialMT-75" transform="scale(0.015625)"/>
       <path d="M 197 991 
L 753 1078 
Q 800 744 1014 566 
Q 1228 388 1613 388 
Q 2000 388 2187 545 
Q 2375 703 2375 916 
Q 2375 1106 2209 1216 
Q 2094 1291 1634 1406 
Q 1016 1563 777 1677 
Q 538 1791 414 1992 
Q 291 2194 291 2438 
Q 291 2659 392 2848 
Q 494 3038 669 3163 
Q 800 3259 1026 3326 
Q 1253 3394 1513 3394 
Q 1903 3394 2198 3281 
Q 2494 3169 2634 2976 
Q 2775 2784 2828 2463 
L 2278 2388 
Q 2241 2644 2061 2787 
Q 1881 2931 1553 2931 
Q 1166 2931 1000 2803 
Q 834 2675 834 2503 
Q 834 2394 903 2306 
Q 972 2216 1119 2156 
Q 1203 2125 1616 2013 
Q 2213 1853 2448 1751 
Q 2684 1650 2818 1456 
Q 2953 1263 2953 975 
Q 2953 694 2789 445 
Q 2625 197 2315 61 
Q 2006 -75 1616 -75 
Q 969 -75 630 194 
Q 291 463 197 991 
z
" id="ArialMT-73" transform="scale(0.015625)"/>
      </defs>
      <use xlink:href="#ArialMT-4d"/>
      <use x="83.300781" xlink:href="#ArialMT-61"/>
      <use x="138.916016" xlink:href="#ArialMT-74"/>
      <use x="166.699219" xlink:href="#ArialMT-63"/>
      <use x="216.699219" xlink:href="#ArialMT-68"/>
      <use x="272.314453" xlink:href="#ArialMT-65"/>
      <use x="327.929688" xlink:href="#ArialMT-64"/>
      <use x="383.544922" xlink:href="#ArialMT-20"/>
      <use x="411.328125" xlink:href="#ArialMT-70"/>
      <use x="466.943359" xlink:href="#ArialMT-72"/>
      <use x="500.244141" xlink:href="#ArialMT-6f"/>
      <use x="555.859375" xlink:href="#ArialMT-64"/>
      <use x="611.474609" xlink:href="#ArialMT-75"/>
      <use x="667.089844" xlink:href="#ArialMT-63"/>
      <use x="717.089844" xlink:href="#ArialMT-74"/>
      <use x="744.873047" xlink:href="#ArialMT-73"/>
     </g>
    </g>
   </g>
   <g id="matplotlib.axis_2">
    <g id="ytick_1">
     <g id="line2d_11">
      <path clip-path="url(#p02a5277934)" d="M 47.9575 447.80625 
L 940.7575 447.80625 
" style="fill:none;stroke:#cccccc;stroke-linecap:round;stroke-width:0.8;"/>
     </g>
     <g id="line2d_12"/>
     <g id="text_7">
      <!-- −2 -->
      <g style="fill:#262626;" transform="translate(26.215 453.5325)scale(0.16 -0.16)">
       <defs>
        <path d="M 3381 1997 
L 356 1997 
L 356 2522 
L 3381 2522 
L 3381 1997 
z
" id="ArialMT-2212" transform="scale(0.015625)"/>
       </defs>
       <use xlink:href="#ArialMT-2212"/>
       <use x="58.398438" xlink:href="#ArialMT-32"/>
      </g>
     </g>
    </g>
    <g id="ytick_2">
     <g id="line2d_13">
      <path clip-path="url(#p02a5277934)" d="M 47.9575 385.680536 
L 940.7575 385.680536 
" style="fill:none;stroke:#cccccc;stroke-linecap:round;stroke-width:0.8;"/>
     </g>
     <g id="line2d_14"/>
     <g id="text_8">
      <!-- −1 -->
      <g style="fill:#262626;" transform="translate(26.215 391.406786)scale(0.16 -0.16)">
       <use xlink:href="#ArialMT-2212"/>
       <use x="58.398438" xlink:href="#ArialMT-31"/>
      </g>
     </g>
    </g>
    <g id="ytick_3">
     <g id="line2d_15">
      <path clip-path="url(#p02a5277934)" d="M 47.9575 323.554821 
L 940.7575 323.554821 
" style="fill:none;stroke:#cccccc;stroke-linecap:round;stroke-width:0.8;"/>
     </g>
     <g id="line2d_16"/>
     <g id="text_9">
      <!-- 0 -->
      <g style="fill:#262626;" transform="translate(35.56 329.281071)scale(0.16 -0.16)">
       <use xlink:href="#ArialMT-30"/>
      </g>
     </g>
    </g>
    <g id="ytick_4">
     <g id="line2d_17">
      <path clip-path="url(#p02a5277934)" d="M 47.9575 261.429107 
L 940.7575 261.429107 
" style="fill:none;stroke:#cccccc;stroke-linecap:round;stroke-width:0.8;"/>
     </g>
     <g id="line2d_18"/>
     <g id="text_10">
      <!-- 1 -->
      <g style="fill:#262626;" transform="translate(35.56 267.155357)scale(0.16 -0.16)">
       <use xlink:href="#ArialMT-31"/>
      </g>
     </g>
    </g>
    <g id="ytick_5">
     <g id="line2d_19">
      <path clip-path="url(#p02a5277934)" d="M 47.9575 199.303393 
L 940.7575 199.303393 
" style="fill:none;stroke:#cccccc;stroke-linecap:round;stroke-width:0.8;"/>
     </g>
     <g id="line2d_20"/>
     <g id="text_11">
      <!-- 2 -->
      <g style="fill:#262626;" transform="translate(35.56 205.029643)scale(0.16 -0.16)">
       <use xlink:href="#ArialMT-32"/>
      </g>
     </g>
    </g>
    <g id="ytick_6">
     <g id="line2d_21">
      <path clip-path="url(#p02a5277934)" d="M 47.9575 137.177679 
L 940.7575 137.177679 
" style="fill:none;stroke:#cccccc;stroke-linecap:round;stroke-width:0.8;"/>
     </g>
     <g id="line2d_22"/>
     <g id="text_12">
      <!-- 3 -->
      <g style="fill:#262626;" transform="translate(35.56 142.903929)scale(0.16 -0.16)">
       <use xlink:href="#ArialMT-33"/>
      </g>
     </g>
    </g>
    <g id="ytick_7">
     <g id="line2d_23">
      <path clip-path="url(#p02a5277934)" d="M 47.9575 75.051964 
L 940.7575 75.051964 
" style="fill:none;stroke:#cccccc;stroke-linecap:round;stroke-width:0.8;"/>
     </g>
     <g id="line2d_24"/>
     <g id="text_13">
      <!-- 4 -->
      <g style="fill:#262626;" transform="translate(35.56 80.778214)scale(0.16 -0.16)">
       <use xlink:href="#ArialMT-34"/>
      </g>
     </g>
    </g>
    <g id="ytick_8">
     <g id="line2d_25">
      <path clip-path="url(#p02a5277934)" d="M 47.9575 12.92625 
L 940.7575 12.92625 
" style="fill:none;stroke:#cccccc;stroke-linecap:round;stroke-width:0.8;"/>
     </g>
     <g id="line2d_26"/>
     <g id="text_14">
      <!-- 5 -->
      <g style="fill:#262626;" transform="translate(35.56 18.6525)scale(0.16 -0.16)">
       <defs>
        <path d="M 266 1200 
L 856 1250 
Q 922 819 1161 601 
Q 1400 384 1738 384 
Q 2144 384 2425 690 
Q 2706 997 2706 1503 
Q 2706 1984 2436 2262 
Q 2166 2541 1728 2541 
Q 1456 2541 1237 2417 
Q 1019 2294 894 2097 
L 366 2166 
L 809 4519 
L 3088 4519 
L 3088 3981 
L 1259 3981 
L 1013 2750 
Q 1425 3038 1878 3038 
Q 2478 3038 2890 2622 
Q 3303 2206 3303 1553 
Q 3303 931 2941 478 
Q 2500 -78 1738 -78 
Q 1113 -78 717 272 
Q 322 622 266 1200 
z
" id="ArialMT-35" transform="scale(0.015625)"/>
       </defs>
       <use xlink:href="#ArialMT-35"/>
      </g>
     </g>
    </g>
    <g id="text_15">
     <!-- Relative deviation (ecoinvent from  exiobase) -->
     <g style="fill:#262626;" transform="translate(18.8475 389.9925)rotate(-90)scale(0.16 -0.16)">
      <defs>
       <path d="M 503 0 
L 503 4581 
L 2534 4581 
Q 3147 4581 3465 4457 
Q 3784 4334 3975 4021 
Q 4166 3709 4166 3331 
Q 4166 2844 3850 2509 
Q 3534 2175 2875 2084 
Q 3116 1969 3241 1856 
Q 3506 1613 3744 1247 
L 4541 0 
L 3778 0 
L 3172 953 
Q 2906 1366 2734 1584 
Q 2563 1803 2427 1890 
Q 2291 1978 2150 2013 
Q 2047 2034 1813 2034 
L 1109 2034 
L 1109 0 
L 503 0 
z
M 1109 2559 
L 2413 2559 
Q 2828 2559 3062 2645 
Q 3297 2731 3419 2920 
Q 3541 3109 3541 3331 
Q 3541 3656 3305 3865 
Q 3069 4075 2559 4075 
L 1109 4075 
L 1109 2559 
z
" id="ArialMT-52" transform="scale(0.015625)"/>
       <path d="M 409 0 
L 409 4581 
L 972 4581 
L 972 0 
L 409 0 
z
" id="ArialMT-6c" transform="scale(0.015625)"/>
       <path d="M 425 3934 
L 425 4581 
L 988 4581 
L 988 3934 
L 425 3934 
z
M 425 0 
L 425 3319 
L 988 3319 
L 988 0 
L 425 0 
z
" id="ArialMT-69" transform="scale(0.015625)"/>
       <path d="M 1344 0 
L 81 3319 
L 675 3319 
L 1388 1331 
Q 1503 1009 1600 663 
Q 1675 925 1809 1294 
L 2547 3319 
L 3125 3319 
L 1869 0 
L 1344 0 
z
" id="ArialMT-76" transform="scale(0.015625)"/>
       <path d="M 422 0 
L 422 3319 
L 928 3319 
L 928 2847 
Q 1294 3394 1984 3394 
Q 2284 3394 2536 3286 
Q 2788 3178 2913 3003 
Q 3038 2828 3088 2588 
Q 3119 2431 3119 2041 
L 3119 0 
L 2556 0 
L 2556 2019 
Q 2556 2363 2490 2533 
Q 2425 2703 2258 2804 
Q 2091 2906 1866 2906 
Q 1506 2906 1245 2678 
Q 984 2450 984 1813 
L 984 0 
L 422 0 
z
" id="ArialMT-6e" transform="scale(0.015625)"/>
       <path d="M 1497 -1347 
Q 1031 -759 709 28 
Q 388 816 388 1659 
Q 388 2403 628 3084 
Q 909 3875 1497 4659 
L 1900 4659 
Q 1522 4009 1400 3731 
Q 1209 3300 1100 2831 
Q 966 2247 966 1656 
Q 966 153 1900 -1347 
L 1497 -1347 
z
" id="ArialMT-28" transform="scale(0.015625)"/>
       <path d="M 556 0 
L 556 2881 
L 59 2881 
L 59 3319 
L 556 3319 
L 556 3672 
Q 556 4006 616 4169 
Q 697 4388 901 4523 
Q 1106 4659 1475 4659 
Q 1713 4659 2000 4603 
L 1916 4113 
Q 1741 4144 1584 4144 
Q 1328 4144 1222 4034 
Q 1116 3925 1116 3625 
L 1116 3319 
L 1763 3319 
L 1763 2881 
L 1116 2881 
L 1116 0 
L 556 0 
z
" id="ArialMT-66" transform="scale(0.015625)"/>
       <path d="M 422 0 
L 422 3319 
L 925 3319 
L 925 2853 
Q 1081 3097 1340 3245 
Q 1600 3394 1931 3394 
Q 2300 3394 2536 3241 
Q 2772 3088 2869 2813 
Q 3263 3394 3894 3394 
Q 4388 3394 4653 3120 
Q 4919 2847 4919 2278 
L 4919 0 
L 4359 0 
L 4359 2091 
Q 4359 2428 4304 2576 
Q 4250 2725 4106 2815 
Q 3963 2906 3769 2906 
Q 3419 2906 3187 2673 
Q 2956 2441 2956 1928 
L 2956 0 
L 2394 0 
L 2394 2156 
Q 2394 2531 2256 2718 
Q 2119 2906 1806 2906 
Q 1569 2906 1367 2781 
Q 1166 2656 1075 2415 
Q 984 2175 984 1722 
L 984 0 
L 422 0 
z
" id="ArialMT-6d" transform="scale(0.015625)"/>
       <path d="M 47 0 
L 1259 1725 
L 138 3319 
L 841 3319 
L 1350 2541 
Q 1494 2319 1581 2169 
Q 1719 2375 1834 2534 
L 2394 3319 
L 3066 3319 
L 1919 1756 
L 3153 0 
L 2463 0 
L 1781 1031 
L 1600 1309 
L 728 0 
L 47 0 
z
" id="ArialMT-78" transform="scale(0.015625)"/>
       <path d="M 941 0 
L 419 0 
L 419 4581 
L 981 4581 
L 981 2947 
Q 1338 3394 1891 3394 
Q 2197 3394 2470 3270 
Q 2744 3147 2920 2923 
Q 3097 2700 3197 2384 
Q 3297 2069 3297 1709 
Q 3297 856 2875 390 
Q 2453 -75 1863 -75 
Q 1275 -75 941 416 
L 941 0 
z
M 934 1684 
Q 934 1088 1097 822 
Q 1363 388 1816 388 
Q 2184 388 2453 708 
Q 2722 1028 2722 1663 
Q 2722 2313 2464 2622 
Q 2206 2931 1841 2931 
Q 1472 2931 1203 2611 
Q 934 2291 934 1684 
z
" id="ArialMT-62" transform="scale(0.015625)"/>
       <path d="M 791 -1347 
L 388 -1347 
Q 1322 153 1322 1656 
Q 1322 2244 1188 2822 
Q 1081 3291 891 3722 
Q 769 4003 388 4659 
L 791 4659 
Q 1378 3875 1659 3084 
Q 1900 2403 1900 1659 
Q 1900 816 1576 28 
Q 1253 -759 791 -1347 
z
" id="ArialMT-29" transform="scale(0.015625)"/>
      </defs>
      <use xlink:href="#ArialMT-52"/>
      <use x="72.216797" xlink:href="#ArialMT-65"/>
      <use x="127.832031" xlink:href="#ArialMT-6c"/>
      <use x="150.048828" xlink:href="#ArialMT-61"/>
      <use x="205.664062" xlink:href="#ArialMT-74"/>
      <use x="233.447266" xlink:href="#ArialMT-69"/>
      <use x="255.664062" xlink:href="#ArialMT-76"/>
      <use x="305.664062" xlink:href="#ArialMT-65"/>
      <use x="361.279297" xlink:href="#ArialMT-20"/>
      <use x="389.0625" xlink:href="#ArialMT-64"/>
      <use x="444.677734" xlink:href="#ArialMT-65"/>
      <use x="500.292969" xlink:href="#ArialMT-76"/>
      <use x="550.292969" xlink:href="#ArialMT-69"/>
      <use x="572.509766" xlink:href="#ArialMT-61"/>
      <use x="628.125" xlink:href="#ArialMT-74"/>
      <use x="655.908203" xlink:href="#ArialMT-69"/>
      <use x="678.125" xlink:href="#ArialMT-6f"/>
      <use x="733.740234" xlink:href="#ArialMT-6e"/>
      <use x="789.355469" xlink:href="#ArialMT-20"/>
      <use x="817.138672" xlink:href="#ArialMT-28"/>
      <use x="850.439453" xlink:href="#ArialMT-65"/>
      <use x="906.054688" xlink:href="#ArialMT-63"/>
      <use x="956.054688" xlink:href="#ArialMT-6f"/>
      <use x="1011.669922" xlink:href="#ArialMT-69"/>
      <use x="1033.886719" xlink:href="#ArialMT-6e"/>
      <use x="1089.501953" xlink:href="#ArialMT-76"/>
      <use x="1139.501953" xlink:href="#ArialMT-65"/>
      <use x="1195.117188" xlink:href="#ArialMT-6e"/>
      <use x="1250.732422" xlink:href="#ArialMT-74"/>
      <use x="1278.515625" xlink:href="#ArialMT-20"/>
      <use x="1306.298828" xlink:href="#ArialMT-66"/>
      <use x="1334.082031" xlink:href="#ArialMT-72"/>
      <use x="1367.382812" xlink:href="#ArialMT-6f"/>
      <use x="1422.998047" xlink:href="#ArialMT-6d"/>
      <use x="1506.298828" xlink:href="#ArialMT-20"/>
      <use x="1534.082031" xlink:href="#ArialMT-20"/>
      <use x="1561.865234" xlink:href="#ArialMT-65"/>
      <use x="1617.480469" xlink:href="#ArialMT-78"/>
      <use x="1667.480469" xlink:href="#ArialMT-69"/>
      <use x="1689.697266" xlink:href="#ArialMT-6f"/>
      <use x="1745.3125" xlink:href="#ArialMT-62"/>
      <use x="1800.927734" xlink:href="#ArialMT-61"/>
      <use x="1856.542969" xlink:href="#ArialMT-73"/>
      <use x="1906.542969" xlink:href="#ArialMT-65"/>
      <use x="1962.158203" xlink:href="#ArialMT-29"/>
     </g>
    </g>
   </g>
   <g id="line2d_27">
    <path clip-path="url(#p02a5277934)" d="M 48.446507 492.77125 
L 48.543968 446.777664 
L 48.739458 446.427912 
L 48.934947 444.260188 
L 49.325926 438.228481 
L 49.521415 438.030256 
L 49.716904 436.149949 
L 49.912394 436.141453 
L 50.303373 435.90449 
L 50.498862 435.861106 
L 51.08533 435.216075 
L 51.280819 429.708271 
L 52.258266 390.614629 
L 52.453756 389.463067 
L 52.649245 387.196363 
L 53.235713 385.680536 
L 84.514014 385.580469 
L 86.664397 385.545775 
L 90.965164 385.423443 
L 98.58925 385.136291 
L 129.86755 383.170249 
L 131.235976 382.889612 
L 132.017934 382.795465 
L 132.799891 382.758772 
L 134.168317 382.660107 
L 143.160828 381.813648 
L 148.243552 381.331482 
L 148.83002 381.214134 
L 150.002957 381.059811 
L 154.499212 380.253534 
L 157.236064 379.704765 
L 158.213511 379.603556 
L 159.777426 379.52307 
L 161.53683 379.420738 
L 162.318787 379.268186 
L 162.709766 379.091859 
L 164.469171 378.876408 
L 165.837596 378.571664 
L 166.033086 378.566197 
L 166.424064 378.346245 
L 168.183469 378.1952 
L 168.965426 378.007959 
L 169.551895 377.882522 
L 170.529341 377.72042 
L 172.093257 377.266844 
L 172.484235 377.246398 
L 172.679725 377.10571 
L 173.657172 377.042773 
L 174.04815 376.96865 
L 175.416576 376.844522 
L 177.17598 376.363602 
L 177.762449 376.228068 
L 178.544406 376.091012 
L 179.717342 375.756757 
L 180.108321 375.613554 
L 183.431641 375.318383 
L 183.62713 375.318383 
L 184.018109 375.159381 
L 191.251216 375.055722 
L 193.792578 374.698871 
L 194.183556 374.456482 
L 194.574535 374.424477 
L 194.770025 374.180795 
L 194.965514 374.174442 
L 195.356493 373.996172 
L 195.747472 373.908366 
L 196.724918 373.748908 
L 197.311387 373.505585 
L 198.093344 373.429007 
L 199.070791 373.341756 
L 199.46177 373.215049 
L 200.243727 373.104467 
L 201.807642 372.796222 
L 202.5896 372.499861 
L 206.108409 371.922642 
L 207.672324 371.844693 
L 208.258792 371.64147 
L 210.409175 371.296973 
L 210.604664 371.117164 
L 211.386622 371.05109 
L 211.97309 370.734211 
L 212.755048 370.538958 
L 213.146026 370.399703 
L 213.537005 370.318048 
L 213.927984 370.230128 
L 214.123473 370.216082 
L 215.29641 369.491964 
L 219.988155 368.806509 
L 220.965602 368.706595 
L 223.115985 368.471299 
L 224.093432 368.060951 
L 226.243815 367.737693 
L 226.439304 367.536684 
L 227.416751 367.356531 
L 229.762624 366.670965 
L 230.349092 366.518976 
L 232.499475 366.125018 
L 235.822795 365.752025 
L 236.213773 365.589617 
L 236.995731 365.413467 
L 237.582199 365.049806 
L 238.168667 365.01413 
L 238.755135 364.824379 
L 239.732582 364.732182 
L 239.928071 364.581604 
L 240.31905 364.565375 
L 240.51454 364.213064 
L 241.687476 363.814953 
L 242.469433 363.6808 
L 242.860412 363.546472 
L 243.64237 363.505199 
L 243.837859 363.213348 
L 247.943136 362.791854 
L 248.725094 362.713869 
L 250.875477 361.954399 
L 253.416839 361.501994 
L 253.807817 361.24739 
L 254.394286 361.061163 
L 257.913094 360.440992 
L 260.063478 360.33975 
L 260.845435 360.308444 
L 261.822882 360.167411 
L 262.213861 359.975816 
L 266.319138 359.373315 
L 267.101095 359.30071 
L 267.492074 359.199132 
L 269.055989 359.076011 
L 269.446968 358.804206 
L 269.837947 358.675945 
L 270.619904 358.503534 
L 271.98833 358.370218 
L 274.334202 358.153776 
L 274.920671 358.058823 
L 275.311649 357.983471 
L 275.898117 357.839724 
L 276.875564 357.752149 
L 278.439479 357.539946 
L 281.958288 357.175689 
L 283.326714 356.819614 
L 283.913182 356.630298 
L 284.49965 356.525757 
L 285.868076 356.180021 
L 286.259055 355.865086 
L 286.650033 355.688577 
L 287.431991 355.603634 
L 288.995906 355.424308 
L 289.777863 355.273708 
L 292.123736 354.472288 
L 293.101183 354.32459 
L 294.07863 354.08944 
L 294.860587 353.93308 
L 296.033524 353.680765 
L 296.424502 353.575238 
L 300.920758 352.711374 
L 301.507226 352.593297 
L 302.484673 352.504048 
L 302.875652 352.318402 
L 304.439567 352.140656 
L 306.78544 351.355265 
L 307.176418 351.193346 
L 307.762886 351.141513 
L 308.153865 351.101645 
L 308.935823 350.718729 
L 309.326802 350.583065 
L 309.71778 350.492657 
L 311.672674 350.2652 
L 311.868163 350.234571 
L 312.063653 350.04286 
L 312.454632 349.924912 
L 313.236589 349.832709 
L 314.018547 349.761597 
L 314.800504 349.700376 
L 314.995994 349.669728 
L 315.386972 349.506097 
L 315.97344 349.440143 
L 316.364419 349.32528 
L 316.950887 349.228169 
L 317.146377 349.223008 
L 317.341866 349.016529 
L 318.123824 348.938892 
L 318.710292 348.82669 
L 319.687739 348.726494 
L 320.665186 348.525862 
L 321.056164 348.48728 
L 321.447143 348.318342 
L 321.838122 348.277504 
L 322.42459 348.116451 
L 322.620079 348.075985 
L 322.815569 347.829312 
L 323.597526 347.788075 
L 323.988505 347.663091 
L 326.529867 346.934431 
L 327.116335 346.852851 
L 328.484761 346.673773 
L 328.87574 346.594162 
L 329.266718 346.501503 
L 330.635144 346.220151 
L 331.026123 346.050573 
L 331.417101 345.954736 
L 332.394548 345.811036 
L 332.981017 345.669224 
L 334.93591 345.555125 
L 335.522378 345.402014 
L 337.868251 345.147457 
L 339.236677 344.92 
L 339.823145 344.802239 
L 340.800592 344.67405 
L 342.559996 344.545139 
L 345.687826 344.297367 
L 346.274294 344.186076 
L 347.056252 344.115328 
L 347.64272 343.801788 
L 351.943486 343.236764 
L 352.334465 343.203521 
L 352.725444 343.036382 
L 353.702891 342.751587 
L 355.071317 342.645864 
L 355.462295 342.54858 
L 356.048763 342.509794 
L 356.244253 342.357073 
L 357.417189 342.216627 
L 357.808168 342.090177 
L 359.372083 342.014071 
L 361.717955 341.485058 
L 362.108934 341.349746 
L 362.695402 341.26398 
L 362.890892 341.101541 
L 363.672849 340.991478 
L 365.041275 340.755385 
L 368.951063 340.186456 
L 369.342041 339.878052 
L 370.710467 339.771829 
L 371.492424 339.606092 
L 374.815744 338.910324 
L 375.597701 338.754623 
L 377.161616 338.514993 
L 377.748085 338.446735 
L 378.139063 338.282771 
L 384.003745 337.660116 
L 384.590213 337.426443 
L 385.37217 337.199891 
L 392.996256 335.860129 
L 393.387235 335.612463 
L 393.778214 335.573664 
L 394.169193 335.446728 
L 395.342129 335.358846 
L 396.710555 335.037076 
L 397.101533 334.963342 
L 397.492512 334.825858 
L 399.056427 334.583123 
L 399.642895 334.421049 
L 400.229363 334.349214 
L 400.620342 334.240923 
L 405.312087 334.157248 
L 405.898555 334.118869 
L 407.071492 334.046591 
L 407.65796 333.969845 
L 408.244428 333.862011 
L 409.221875 333.788863 
L 411.176769 333.679923 
L 412.349705 333.472081 
L 413.131662 333.322516 
L 413.522641 333.129864 
L 414.695578 332.955894 
L 417.04145 332.358641 
L 420.755748 331.950794 
L 422.124174 331.717331 
L 423.29711 331.593349 
L 423.688089 331.567334 
L 424.079068 331.313507 
L 425.838472 330.977104 
L 426.42494 330.932185 
L 427.402387 330.866498 
L 429.55277 330.32605 
L 430.921196 330.181141 
L 437.372346 329.445439 
L 437.567835 329.297718 
L 438.545282 329.221874 
L 438.936261 329.116026 
L 441.086644 329.101742 
L 442.45507 329.008833 
L 445.191921 328.666445 
L 445.5829 328.66419 
L 445.973878 328.506531 
L 451.83856 328.449327 
L 452.229539 328.304281 
L 454.379922 328.050685 
L 454.96639 327.8418 
L 456.334816 327.650732 
L 456.725794 327.484021 
L 458.289709 327.043284 
L 459.267156 326.943623 
L 459.853624 326.848768 
L 461.613029 326.618036 
L 464.740859 326.150058 
L 465.131838 325.855232 
L 467.47771 325.696444 
L 472.755923 325.629563 
L 473.537881 325.458493 
L 474.124349 325.347559 
L 475.688264 325.143203 
L 476.274732 325.002339 
L 477.643158 324.6736 
L 478.034137 324.531494 
L 478.620605 324.472647 
L 479.011584 324.32472 
L 480.380009 324.229915 
L 483.703329 323.530683 
L 484.094308 323.369075 
L 484.876265 323.273883 
L 485.267244 323.273883 
L 485.462733 323.137846 
L 486.635669 323.040489 
L 486.831159 323.002694 
L 487.222138 322.824583 
L 489.7635 322.501156 
L 490.545457 322.222681 
L 491.522904 322.082203 
L 494.650734 321.294312 
L 495.432692 321.1917 
L 495.82367 321.043641 
L 496.410138 320.897068 
L 496.605628 320.740244 
L 497.387585 320.628685 
L 497.974054 320.533972 
L 499.537969 320.374574 
L 500.710905 320.172373 
L 504.425203 319.756937 
L 504.816182 319.61109 
L 510.876353 318.36301 
L 512.049289 318.159787 
L 513.222225 318.117329 
L 513.613204 317.886726 
L 514.78614 317.848671 
L 515.959077 317.380308 
L 521.432779 316.750969 
L 521.823758 316.635475 
L 523.192184 316.492465 
L 526.515503 316.137268 
L 532.771163 315.153062 
L 533.74861 315.093371 
L 534.139589 314.970894 
L 535.898993 314.687412 
L 536.289972 314.56158 
L 537.853887 314.312439 
L 545.282484 312.951091 
L 545.868952 312.71932 
L 546.064441 312.714761 
L 546.45542 312.465051 
L 547.237377 312.372249 
L 547.628356 312.231737 
L 548.605803 312.188112 
L 548.996782 312.08969 
L 549.974229 312.011813 
L 550.756186 311.815209 
L 552.320101 311.745039 
L 552.71108 311.640803 
L 553.493038 311.524349 
L 553.884016 311.44922 
L 555.643421 311.210341 
L 556.034399 311.107345 
L 557.011846 311.068571 
L 557.402825 310.94182 
L 558.96674 310.683164 
L 562.485549 309.908302 
L 564.244953 309.801313 
L 567.568273 308.810865 
L 568.741209 308.710727 
L 568.936699 308.535854 
L 569.132188 308.535854 
L 569.523167 308.362466 
L 570.109635 308.312824 
L 571.087082 308.070112 
L 571.869039 307.977599 
L 572.260018 307.647052 
L 573.628444 307.476521 
L 574.019422 307.385647 
L 574.410401 307.255844 
L 574.605891 307.099011 
L 574.996869 307.094478 
L 575.387848 306.9858 
L 576.169806 306.94865 
L 576.756274 306.806449 
L 576.951763 306.794104 
L 577.147253 306.639904 
L 577.733721 306.533539 
L 578.320189 306.495658 
L 579.688615 306.447462 
L 580.079593 306.299925 
L 580.470572 305.993975 
L 581.05704 305.83945 
L 581.448019 305.770834 
L 582.229976 305.641937 
L 582.816445 305.551906 
L 583.207423 305.345893 
L 583.793892 305.096338 
L 584.575849 304.930333 
L 584.966828 304.797557 
L 585.553296 304.570828 
L 590.63602 304.303483 
L 591.417977 303.979443 
L 591.808956 303.92071 
L 592.004445 303.741678 
L 592.786403 303.685232 
L 593.177382 303.599428 
L 597.869127 302.599576 
L 598.260106 302.211345 
L 599.042063 302.090541 
L 599.433042 301.987929 
L 600.214999 301.876943 
L 600.410489 301.667568 
L 601.778914 301.249554 
L 602.756361 301.030226 
L 603.14734 300.971076 
L 603.733808 300.822427 
L 604.515766 300.625943 
L 605.297723 300.08576 
L 605.884191 299.979937 
L 606.079681 299.873421 
L 606.27517 299.63455 
L 607.839085 299.162113 
L 608.425553 298.914788 
L 609.403 298.644794 
L 609.989468 298.225689 
L 610.575937 297.989091 
L 611.944362 297.487773 
L 612.335341 297.093138 
L 613.117299 297.021684 
L 613.508277 296.814988 
L 613.899256 296.724369 
L 615.072192 296.459538 
L 617.418065 295.757621 
L 617.613554 295.716453 
L 617.809044 295.478994 
L 618.591001 295.2828 
L 618.98198 295.062635 
L 619.568448 294.641738 
L 620.741384 294.275386 
L 621.327853 293.884044 
L 621.718831 293.791455 
L 622.10981 293.647721 
L 622.500789 293.328113 
L 623.282746 293.187867 
L 623.673725 293.02586 
L 624.260193 292.898422 
L 624.846661 292.799314 
L 625.042151 292.670784 
L 625.23764 292.334167 
L 625.628619 292.211461 
L 625.824108 291.918881 
L 626.215087 291.863992 
L 626.410576 291.65292 
L 626.997045 291.534696 
L 627.388023 291.35787 
L 627.779002 291.272662 
L 628.36547 290.939893 
L 628.56096 290.664869 
L 629.342917 290.455536 
L 629.733896 290.213568 
L 630.124875 290.079546 
L 631.4933 289.746271 
L 633.057215 289.300001 
L 633.839173 288.862346 
L 635.012109 288.629916 
L 635.598577 288.424567 
L 636.967003 288.299646 
L 637.162492 288.109574 
L 642.831684 288.109574 
L 643.027174 287.985444 
L 644.004621 286.730522 
L 644.20011 286.580494 
L 644.395599 286.579289 
L 644.591089 286.39597 
L 645.177557 286.340036 
L 645.568536 286.03551 
L 645.764025 286.025564 
L 646.350493 285.733455 
L 646.936961 285.517533 
L 647.914408 285.425173 
L 648.109898 285.25886 
L 648.305387 284.925422 
L 648.696366 284.841102 
L 649.478323 284.282084 
L 649.673813 284.281977 
L 649.869302 283.82446 
L 650.064791 283.822428 
L 650.45577 283.629218 
L 652.410664 283.038016 
L 652.801643 282.739662 
L 652.997132 282.697698 
L 653.192622 282.496231 
L 653.5836 282.418779 
L 653.77909 281.955755 
L 653.974579 281.911963 
L 654.170068 281.697904 
L 654.365558 281.695715 
L 654.756537 281.21563 
L 654.952026 280.929913 
L 655.733983 280.706654 
L 657.297899 280.045683 
L 657.493388 279.787465 
L 657.688877 279.7134 
L 657.884367 278.927578 
L 658.470835 278.80488 
L 658.861814 278.54269 
L 659.448282 278.4493 
L 659.83926 278.207504 
L 660.03475 278.009435 
L 660.230239 277.646776 
L 661.012197 277.422794 
L 664.531006 276.129355 
L 664.726495 275.75607 
L 665.117474 275.709104 
L 665.899431 275.028122 
L 666.29041 274.937078 
L 666.876878 274.366816 
L 667.072368 274.167528 
L 667.267857 274.143839 
L 667.658836 273.902615 
L 667.854325 273.539598 
L 668.049814 273.510573 
L 668.831772 272.429387 
L 669.027261 272.363307 
L 669.41824 271.839295 
L 669.613729 270.931473 
L 670.004708 270.767012 
L 670.200198 270.47348 
L 670.591176 270.426187 
L 670.982155 270.243685 
L 671.373134 270.101607 
L 672.350581 269.409524 
L 672.54607 269.380011 
L 672.74156 269.134002 
L 672.937049 269.130143 
L 673.328028 268.894825 
L 673.523517 268.41495 
L 673.914496 268.301498 
L 674.109985 268.29293 
L 674.891943 266.808966 
L 675.282922 266.429078 
L 675.6739 266.174361 
L 676.064879 266.141216 
L 676.260368 265.744247 
L 676.455858 265.643845 
L 676.651347 265.386994 
L 676.846837 265.377431 
L 677.433305 264.943393 
L 677.824283 264.853752 
L 678.80173 264.438909 
L 678.99722 264.198078 
L 679.192709 264.134178 
L 679.974667 263.421138 
L 680.170156 263.4022 
L 681.343092 262.001533 
L 682.320539 261.846614 
L 682.516029 261.134022 
L 682.907007 261.049148 
L 683.102497 260.810209 
L 683.297986 260.758181 
L 683.688965 260.112157 
L 684.079944 259.924328 
L 684.275433 259.8375 
L 684.470922 259.56834 
L 685.25288 259.385642 
L 685.448369 259.243833 
L 685.643859 258.904329 
L 686.816795 258.378285 
L 687.403263 258.304261 
L 688.38071 257.678996 
L 688.576199 256.987333 
L 688.771689 256.927987 
L 689.162668 256.529562 
L 689.358157 256.515659 
L 689.553646 256.09374 
L 689.749136 256.075701 
L 689.944625 255.702623 
L 690.335604 255.62358 
L 690.531093 255.543992 
L 690.922072 254.997362 
L 692.095008 254.716972 
L 692.290498 254.552848 
L 692.485987 254.144616 
L 692.876966 253.962579 
L 693.072455 253.667022 
L 693.267944 253.628937 
L 693.463434 253.435305 
L 693.854413 253.321123 
L 694.83186 253.12418 
L 695.027349 253.046171 
L 695.809306 251.659126 
L 696.200285 251.53162 
L 696.395775 251.034352 
L 697.177732 250.768104 
L 697.373221 250.56952 
L 697.568711 249.830638 
L 697.95969 249.652405 
L 698.546158 249.52653 
L 698.937137 249.171166 
L 699.132626 248.791921 
L 699.719094 248.407895 
L 700.305562 248.016011 
L 700.501052 247.994094 
L 700.696541 247.204682 
L 701.08752 247.073315 
L 701.478498 246.952473 
L 701.869477 246.817381 
L 702.260456 246.686525 
L 702.651435 246.634343 
L 703.042414 246.153785 
L 703.237903 246.073188 
L 703.433392 245.582437 
L 703.628882 245.497587 
L 704.01986 244.886178 
L 704.21535 244.886178 
L 704.410839 244.459447 
L 704.801818 244.327129 
L 704.997307 244.022566 
L 705.192797 243.93225 
L 705.388286 243.640275 
L 705.779265 243.622684 
L 706.365733 243.270366 
L 706.756712 243.217768 
L 707.14769 242.623588 
L 707.34318 242.314815 
L 707.734159 242.17884 
L 708.125137 241.732052 
L 708.516116 241.57957 
L 709.102584 241.283479 
L 709.298074 240.975434 
L 709.493563 240.908868 
L 709.884542 240.296204 
L 710.080031 240.27136 
L 710.275521 239.685418 
L 710.47101 239.668343 
L 710.861989 239.322867 
L 711.057478 239.314477 
L 711.448457 238.972023 
L 711.643946 238.908307 
L 711.839436 238.56309 
L 712.425904 238.488643 
L 712.816883 238.442404 
L 713.012372 237.715197 
L 713.403351 237.425578 
L 713.59884 236.730499 
L 714.380798 236.359337 
L 714.967266 236.097564 
L 715.162755 235.822816 
L 715.553734 235.61083 
L 716.335691 235.023607 
L 716.531181 234.61735 
L 716.92216 234.442622 
L 717.117649 234.397742 
L 717.313138 234.047805 
L 717.899606 233.902238 
L 718.095096 233.481021 
L 718.486075 233.346185 
L 719.072543 232.392505 
L 719.659011 231.977857 
L 720.440968 231.9325 
L 721.613905 231.836076 
L 722.004883 231.472465 
L 722.395862 231.352272 
L 723.17782 229.423439 
L 723.568798 229.313131 
L 723.764288 229.120715 
L 723.959777 228.293486 
L 724.155267 228.249412 
L 724.350756 227.846777 
L 724.546245 227.821827 
L 724.937224 227.563656 
L 725.132713 227.440964 
L 725.523692 226.674035 
L 725.719182 226.614611 
L 725.914671 225.916057 
L 726.696629 225.575007 
L 726.892118 225.488023 
L 727.087607 225.162047 
L 727.283097 224.433585 
L 727.674075 224.06166 
L 727.869565 223.921732 
L 728.260544 223.369603 
L 728.456033 223.199745 
L 728.651522 222.584457 
L 730.019948 222.584457 
L 730.215437 222.433109 
L 730.410927 222.071701 
L 730.606416 222.054365 
L 730.801906 221.825684 
L 731.192884 220.453036 
L 731.779352 220.014743 
L 733.538757 220.014743 
L 733.734246 219.849405 
L 733.929736 219.169219 
L 734.516204 218.862128 
L 740.380885 218.799043 
L 741.162843 217.824378 
L 741.749311 217.648849 
L 741.9448 216.834175 
L 742.14029 216.598139 
L 742.335779 215.780927 
L 742.531268 215.512519 
L 742.726758 214.836898 
L 743.313226 214.269625 
L 743.704205 214.014485 
L 744.095183 213.645112 
L 744.290673 213.630212 
L 746.245567 211.872318 
L 748.20046 211.872318 
L 748.591439 211.629114 
L 748.786929 211.099637 
L 749.177907 210.886019 
L 749.764375 210.804779 
L 750.350844 210.020444 
L 750.546333 210.000828 
L 751.132801 209.112812 
L 751.52378 209.038667 
L 751.719269 208.28177 
L 752.110248 207.982176 
L 752.696716 207.243652 
L 752.892205 206.857254 
L 753.087695 206.760586 
L 753.674163 205.776898 
L 754.065142 204.037463 
L 754.260631 203.939069 
L 754.456121 203.614512 
L 754.65161 202.856638 
L 755.042589 202.501641 
L 755.238078 201.984642 
L 755.433567 201.92795 
L 755.824546 201.662135 
L 756.020036 201.630804 
L 756.215525 201.351129 
L 756.411014 200.309205 
L 756.997482 200.157592 
L 757.583951 198.984592 
L 757.77944 198.980416 
L 757.974929 198.696577 
L 758.170419 198.633454 
L 758.365908 198.442031 
L 758.561398 198.426208 
L 758.756887 198.091255 
L 759.538844 197.691309 
L 759.734334 197.398359 
L 760.516291 195.362414 
L 760.711781 195.206439 
L 760.90727 194.789514 
L 761.493738 194.511853 
L 761.689228 194.008778 
L 762.080206 193.916931 
L 762.275696 193.827495 
L 762.666675 193.149947 
L 763.253143 190.812365 
L 763.448632 190.721688 
L 763.839611 189.864426 
L 764.817058 189.759826 
L 766.380973 189.759826 
L 766.576462 189.596907 
L 768.922335 189.488955 
L 769.117824 189.332804 
L 770.095271 187.053135 
L 770.29076 187.049098 
L 771.268207 186.10525 
L 771.659186 184.625492 
L 771.854675 184.588154 
L 772.441144 184.081761 
L 772.636633 184.077492 
L 773.41859 182.146879 
L 773.61408 182.12316 
L 774.005059 181.371646 
L 775.568974 177.277078 
L 775.959952 177.25698 
L 776.546421 176.566717 
L 776.74191 176.205168 
L 776.937399 176.089268 
L 777.132889 175.73988 
L 777.328378 175.702365 
L 777.523867 175.127435 
L 777.719357 175.023393 
L 778.110336 174.27579 
L 778.696804 174.081125 
L 778.892293 173.876597 
L 779.087782 172.585986 
L 779.283272 172.585986 
L 779.478761 172.43411 
L 779.674251 171.883625 
L 779.86974 171.830065 
L 780.260719 170.930399 
L 780.456208 170.921187 
L 781.238166 169.978421 
L 782.99757 169.978421 
L 783.584038 168.846637 
L 783.779528 168.739305 
L 784.561485 166.599061 
L 784.952464 166.561569 
L 785.343443 166.288596 
L 787.298336 166.282786 
L 787.493826 165.91755 
L 787.884805 165.593962 
L 788.275783 165.130356 
L 788.471273 164.152307 
L 788.666762 163.993453 
L 788.862251 163.455305 
L 789.839698 162.785235 
L 790.035188 162.388399 
L 790.230677 161.3374 
L 790.621656 160.998998 
L 791.599103 160.612961 
L 791.990082 158.932652 
L 792.38106 157.897369 
L 792.57655 157.663766 
L 792.772039 155.428687 
L 792.967528 154.678887 
L 793.163018 154.656312 
L 793.358507 154.36681 
L 793.553997 153.634906 
L 793.749486 152.388968 
L 793.944975 152.143572 
L 794.140465 152.143572 
L 794.726933 151.683187 
L 794.922422 151.18988 
L 795.117912 151.127585 
L 795.50889 150.423217 
L 795.70438 150.384814 
L 795.899869 150.114601 
L 796.095359 150.114601 
L 796.877316 149.482095 
L 797.268295 148.361952 
L 797.463784 148.204814 
L 797.659274 148.196621 
L 797.854763 146.664066 
L 798.050252 146.320914 
L 798.63672 144.059954 
L 799.223189 143.691954 
L 799.418678 142.85313 
L 799.614167 142.537696 
L 800.005146 138.13165 
L 800.396125 137.731644 
L 800.591614 137.491781 
L 800.982593 136.394136 
L 801.373572 135.723427 
L 801.96004 134.051697 
L 802.351019 134.009917 
L 802.546508 133.486074 
L 802.741997 132.043742 
L 803.328466 131.323884 
L 803.719444 130.03922 
L 803.914934 129.696024 
L 804.110423 129.006056 
L 804.501402 128.772154 
L 804.696891 128.331327 
L 805.283359 123.861894 
L 805.869828 122.121607 
L 808.020211 122.121607 
L 808.2157 121.36134 
L 808.41119 121.36134 
L 808.606679 121.081045 
L 808.802168 118.706634 
L 808.997658 118.132112 
L 809.584126 113.510277 
L 809.975105 112.861132 
L 810.170594 112.850004 
L 810.561573 111.138759 
L 811.34353 109.652125 
L 811.53902 109.626307 
L 812.711956 108.384492 
L 814.080382 108.374931 
L 814.275871 108.019334 
L 818.772127 108.011869 
L 819.163105 106.396033 
L 819.358595 105.705719 
L 819.554084 102.612633 
L 819.749574 101.574577 
L 819.945063 101.210462 
L 820.140552 100.318731 
L 820.531531 100.227451 
L 820.72702 99.403008 
L 820.92251 97.861597 
L 821.117999 97.245753 
L 821.313489 97.054372 
L 822.095446 93.318382 
L 822.486425 93.161237 
L 822.877404 92.894109 
L 823.463872 90.270984 
L 823.659361 89.733981 
L 824.245829 89.720591 
L 824.636808 88.617836 
L 824.832297 88.590639 
L 825.027787 88.000417 
L 825.418766 88.000417 
L 825.614255 87.831828 
L 825.809744 83.785213 
L 826.005234 83.762139 
L 826.200723 83.602279 
L 826.787191 82.49379 
L 827.17817 82.150305 
L 827.569149 81.192191 
L 827.960128 80.629243 
L 828.351106 78.639043 
L 828.546596 78.174784 
L 828.742085 78.040658 
L 828.937574 77.084479 
L 829.133064 77.049841 
L 829.328553 76.370285 
L 829.524043 76.163288 
L 829.719532 75.050232 
L 829.915021 75.050232 
L 830.110511 74.410074 
L 831.869915 74.410074 
L 832.065405 73.512177 
L 832.260894 73.512177 
L 832.456383 73.300918 
L 832.651873 73.300918 
L 832.847362 72.050103 
L 833.042851 71.851846 
L 833.238341 71.471078 
L 833.62932 71.471078 
L 833.824809 68.426518 
L 834.020298 67.813997 
L 834.215788 65.690053 
L 834.411277 64.976156 
L 834.606766 64.854955 
L 835.388724 62.761092 
L 835.584213 62.680501 
L 835.779703 60.374833 
L 836.366171 57.746079 
L 836.56166 57.414508 
L 836.952639 55.921257 
L 837.148128 54.204494 
L 837.734597 53.895245 
L 837.930086 49.798984 
L 838.125575 49.79559 
L 838.516554 46.807069 
L 839.103022 45.011889 
L 839.298512 44.771633 
L 840.080469 42.496134 
L 840.275959 42.347394 
L 840.862427 37.960163 
L 841.253405 37.209276 
L 841.448895 36.767257 
L 843.403789 36.762713 
L 843.599278 36.159382 
L 844.185746 36.053011 
L 844.967704 34.396479 
L 845.554172 34.396479 
L 845.749661 34.146954 
L 846.336129 34.111995 
L 846.531619 33.028235 
L 846.727108 30.042128 
L 846.922597 29.910083 
L 847.313576 28.23212 
L 847.704555 25.576023 
L 847.900044 24.94599 
L 848.095534 23.743699 
L 848.486512 23.04542 
L 848.682002 21.653951 
L 848.877491 21.653951 
L 849.072981 18.197684 
L 849.26847 12.548388 
L 849.463959 11.563825 
L 849.659449 11.529226 
L 849.854938 9.017569 
L 850.050428 8.410534 
L 850.245917 5.668845 
L 850.441406 4.610699 
L 851.027874 -0.170456 
L 851.228832 -1 
L 851.228832 -1 
" style="fill:none;stroke:#000000;stroke-linecap:round;stroke-width:5;"/>
   </g>
   <g id="patch_3">
    <path d="M 47.9575 447.80625 
L 47.9575 12.92625 
" style="fill:none;stroke:#cccccc;stroke-linecap:square;stroke-linejoin:miter;"/>
   </g>
   <g id="patch_4">
    <path d="M 940.7575 447.80625 
L 940.7575 12.92625 
" style="fill:none;stroke:#cccccc;stroke-linecap:square;stroke-linejoin:miter;"/>
   </g>
   <g id="patch_5">
    <path d="M 47.9575 447.80625 
L 940.7575 447.80625 
" style="fill:none;stroke:#cccccc;stroke-linecap:square;stroke-linejoin:miter;"/>
   </g>
   <g id="patch_6">
    <path d="M 47.9575 12.92625 
L 940.7575 12.92625 
" style="fill:none;stroke:#cccccc;stroke-linecap:square;stroke-linejoin:miter;"/>
   </g>
  </g>
 </g>
 <defs>
  <clipPath id="p02a5277934">
   <rect height="434.88" width="892.8" x="47.9575" y="12.92625"/>
  </clipPath>
 </defs>
</svg>
